<?xml version="1.0" encoding="UTF-8" standalone="no"?>
<!-- Created with Inkscape (http://www.inkscape.org/) -->

<svg
   xmlns:dc="http://purl.org/dc/elements/1.1/"
   xmlns:cc="http://creativecommons.org/ns#"
   xmlns:rdf="http://www.w3.org/1999/02/22-rdf-syntax-ns#"
   xmlns:svg="http://www.w3.org/2000/svg"
   xmlns="http://www.w3.org/2000/svg"
   xmlns:sodipodi="http://sodipodi.sourceforge.net/DTD/sodipodi-0.dtd"
   xmlns:inkscape="http://www.inkscape.org/namespaces/inkscape"
   width="512mm"
   height="512mm"
   viewBox="0 0 512 512"
   version="1.1"
   id="svg1128"
   inkscape:version="0.92.3 (2405546, 2018-03-11)"
   sodipodi:docname="laptop.svg">
  <defs
     id="defs1122" />
  <sodipodi:namedview
     id="base"
     pagecolor="#ffffff"
     bordercolor="#666666"
     borderopacity="1.0"
     inkscape:pageopacity="0.0"
     inkscape:pageshadow="2"
     inkscape:zoom="0.36"
     inkscape:cx="396.85039"
     inkscape:cy="1116.8154"
     inkscape:document-units="mm"
     inkscape:current-layer="layer1"
     showgrid="false"
     inkscape:window-width="1853"
     inkscape:window-height="1025"
     inkscape:window-x="67"
     inkscape:window-y="27"
     inkscape:window-maximized="1" />
  <metadata
     id="metadata1125">
    <rdf:RDF>
      <cc:Work
         rdf:about="">
        <dc:format>image/svg+xml</dc:format>
        <dc:type
           rdf:resource="http://purl.org/dc/dcmitype/StillImage" />
        <dc:title></dc:title>
      </cc:Work>
    </rdf:RDF>
  </metadata>
  <g
     inkscape:label="Capa 1"
     inkscape:groupmode="layer"
     id="layer1"
     transform="translate(0,215)">
    <g
       transform="matrix(3.7877931,0,0,-3.7877931,-2502.6004,4152.1372)"
       id="g4040">
      <path
         inkscape:connector-curvature="0"
         id="path326"
         style="fill:#ffb612;fill-opacity:1;fill-rule:nonzero;stroke:none"
         d="m 730,1122 h -4 v 4 h 4 z m 4,8 h -12 v -12 h 12 z" />
      <g
         transform="translate(740,1054)"
         id="g328">
        <path
           inkscape:connector-curvature="0"
           id="path330"
           style="fill:#ffb612;fill-opacity:1;fill-rule:nonzero;stroke:none"
           d="m 0,0 v -2 h -24 v 2 h -4 v -3 c 0,-1.654 1.346,-3 3,-3 H 1 c 1.654,0 3,1.346 3,3 v 3 z" />
      </g>
      <g
         transform="translate(724,1092)"
         id="g332">
        <path
           inkscape:connector-curvature="0"
           id="path334"
           style="fill:#e0e0e0;fill-opacity:1;fill-rule:nonzero;stroke:none"
           d="m 0,0 h -32 v 18 c 0,1.1 0.9,2 2,2 h 28 c 1.1,0 2,-0.9 2,-2 z" />
      </g>
      <g
         transform="translate(764,1092)"
         id="g336">
        <path
           inkscape:connector-curvature="0"
           id="path338"
           style="fill:#e0e0e0;fill-opacity:1;fill-rule:nonzero;stroke:none"
           d="m 0,0 h -32 v 18 c 0,1.1 0.9,2 2,2 h 28 c 1.1,0 2,-0.9 2,-2 z" />
      </g>
      <g
         transform="translate(742,1054)"
         id="g340">
        <path
           inkscape:connector-curvature="0"
           id="path342"
           style="fill:#ffb612;fill-opacity:1;fill-rule:nonzero;stroke:none"
           d="m 0,0 v -3 c 0,-0.55 -0.45,-1 -1,-1 h -26 c -0.55,0 -1,0.45 -1,1 v 3" />
      </g>
      <path
         inkscape:connector-curvature="0"
         id="path344"
         style="fill:#262626;fill-opacity:1;fill-rule:nonzero;stroke:none"
         d="m 682,1046 h -16 v 4 h 16 z" />
      <path
         inkscape:connector-curvature="0"
         id="path346"
         style="fill:#262626;fill-opacity:1;fill-rule:nonzero;stroke:none"
         d="m 790,1046 h -16 v 4 h 16 z" />
      <g
         transform="translate(782,1054)"
         id="g348">
        <path
           inkscape:connector-curvature="0"
           id="path350"
           style="fill:#262626;fill-opacity:1;fill-rule:nonzero;stroke:none"
           d="m 0,0 h -4 v 66 c 0,3.309 -2.691,6 -6,6 h -88 c -3.309,0 -6,-2.691 -6,-6 V 0 h -4 v 66 c 0,5.514 4.486,10 10,10 h 88 C -4.486,76 0,71.514 0,66 Z" />
      </g>
      <g
         transform="translate(668,1052)"
         id="g352">
        <path
           inkscape:connector-curvature="0"
           id="path354"
           style="fill:#262626;fill-opacity:1;fill-rule:nonzero;stroke:none"
           d="m 0,0 v -4 c 0,-2.206 1.794,-4 4,-4 h 112 c 2.206,0 4,1.794 4,4 V 0 Z M 116,-12 H 4 c -4.411,0 -8,3.589 -8,8 v 4 c 0,2.206 1.794,4 4,4 h 120 c 2.206,0 4,-1.794 4,-4 v -4 c 0,-4.411 -3.589,-8 -8,-8" />
      </g>
      <g
         transform="translate(686,1064)"
         id="g356">
        <path
           inkscape:connector-curvature="0"
           id="path358"
           style="fill:#262626;fill-opacity:1;fill-rule:nonzero;stroke:none"
           d="m 0,0 h 84 v 52 c 0,1.103 -0.897,2 -2,2 H 2 C 0.897,54 0,53.103 0,52 Z M 88,-4 H -4 v 56 c 0,3.309 2.691,6 6,6 h 80 c 3.309,0 6,-2.691 6,-6 z" />
      </g>
      <path
         inkscape:connector-curvature="0"
         id="path360"
         style="fill:#262626;fill-opacity:1;fill-rule:nonzero;stroke:none"
         d="m 724,1084 h -32 v 4 h 32 z" />
      <path
         inkscape:connector-curvature="0"
         id="path362"
         style="fill:#262626;fill-opacity:1;fill-rule:nonzero;stroke:none"
         d="m 718,1076 h -20 v 4 h 20 z" />
      <path
         inkscape:connector-curvature="0"
         id="path364"
         style="fill:#262626;fill-opacity:1;fill-rule:nonzero;stroke:none"
         d="m 764,1084 h -32 v 4 h 32 z" />
      <path
         inkscape:connector-curvature="0"
         id="path366"
         style="fill:#262626;fill-opacity:1;fill-rule:nonzero;stroke:none"
         d="m 758,1076 h -20 v 4 h 20 z" />
    </g>
  </g>
</svg>
